<svg width="36" height="36" viewBox="0 0 36 36" fill="none" xmlns="http://www.w3.org/2000/svg">
<path d="M13.5 14.25C13.5 14.9917 13.2801 15.7167 12.868 16.3334C12.456 16.9501 11.8703 17.4307 11.1851 17.7145C10.4998 17.9984 9.74584 18.0726 9.01841 17.9279C8.29098 17.7832 7.6228 17.4261 7.09835 16.9016C6.5739 16.3772 6.21675 15.709 6.07205 14.9816C5.92736 14.2542 6.00162 13.5002 6.28545 12.8149C6.56928 12.1297 7.04993 11.544 7.66661 11.132C8.2833 10.7199 9.00832 10.5 9.75 10.5C10.7446 10.5 11.6984 10.8951 12.4017 11.5983C13.1049 12.3016 13.5 13.2554 13.5 14.25ZM36 18V15C36 13.4087 35.3679 11.8826 34.2426 10.7574C33.1174 9.63214 31.5913 9 30 9H22.5C20.9087 9 19.3826 9.63214 18.2574 10.7574C17.1321 11.8826 16.5 13.4087 16.5 15V18H36ZM3 21V4.5C3 4.10217 2.84196 3.72064 2.56066 3.43934C2.27936 3.15804 1.89782 3 1.5 3C1.10218 3 0.720644 3.15804 0.43934 3.43934C0.158035 3.72064 0 4.10217 0 4.5L0 31.5C0 31.8978 0.158035 32.2793 0.43934 32.5606C0.720644 32.842 1.10218 33 1.5 33C1.89782 33 2.27936 32.842 2.56066 32.5606C2.84196 32.2793 3 31.8978 3 31.5V28.5H33V31.5C33 31.8978 33.158 32.2793 33.4393 32.5606C33.7206 32.842 34.1022 33 34.5 33C34.8978 33 35.2794 32.842 35.5607 32.5606C35.842 32.2793 36 31.8978 36 31.5V21H3Z" fill="black"/>
</svg>
