<svg width="36" height="36" viewBox="0 0 36 36" fill="none" xmlns="http://www.w3.org/2000/svg">
<g clip-path="url(#clip0_585_2338)">
<path d="M14.9429 12L11.4644 0H15.5999C16.4085 -2.66049e-06 17.2021 0.217865 17.8974 0.630694C18.5926 1.04352 19.1638 1.63606 19.5509 2.346L24.4034 12H14.9429ZM31.4999 15H7.48038L3.59988 11.1165C3.2433 10.7407 2.76043 10.51 2.24406 10.4687C1.7277 10.4274 1.21428 10.5784 0.802491 10.8927C0.390705 11.207 0.109609 11.6623 0.0132328 12.1713C-0.0831435 12.6803 0.0120006 13.2069 0.280378 13.65L5.11038 22.5H15.8324L10.5284 36H15.1229C15.9161 36.0032 16.6958 35.7945 17.3815 35.3955C18.0671 34.9966 18.6337 34.4217 19.0229 33.7305L25.9034 22.5H35.9999V19.5C35.9999 18.3065 35.5258 17.1619 34.6819 16.318C33.8379 15.4741 32.6934 15 31.4999 15Z" fill="black"/>
</g>
<defs>
<clipPath id="clip0_585_2338">
<rect width="36" height="36" fill="white"/>
</clipPath>
</defs>
</svg>
